<mxfile host="app.diagrams.net" modified="2021-04-16T10:14:32.470Z" agent="5.0 (Windows NT 10.0; Win64; x64) AppleWebKit/537.36 (KHTML, like Gecko) Chrome/89.0.4389.128 Safari/537.36" etag="Ej5cQ5u86vQhkAzlq4Xa" version="14.6.0" type="github">
  <diagram id="EAfrOOPwEgUAlloDIzI3" name="第 1 页">
    <mxGraphModel dx="1865" dy="548" grid="1" gridSize="10" guides="1" tooltips="1" connect="1" arrows="1" fold="1" page="1" pageScale="1" pageWidth="827" pageHeight="1169" math="0" shadow="0">
      <root>
        <mxCell id="0" />
        <mxCell id="1" parent="0" />
        <mxCell id="E39O6uzAxmvISPyey-Xv-9" style="edgeStyle=orthogonalEdgeStyle;rounded=1;orthogonalLoop=1;jettySize=auto;html=1;exitX=1;exitY=0.5;exitDx=0;exitDy=0;strokeWidth=2;fillColor=#dae8fc;strokeColor=#6c8ebf;startArrow=classic;startFill=1;" edge="1" parent="1" source="E39O6uzAxmvISPyey-Xv-1" target="E39O6uzAxmvISPyey-Xv-4">
          <mxGeometry relative="1" as="geometry" />
        </mxCell>
        <mxCell id="E39O6uzAxmvISPyey-Xv-1" value="&lt;font style=&quot;font-size: 15px&quot;&gt;&lt;b&gt;资料检索模块&lt;/b&gt;&lt;/font&gt;" style="rounded=1;whiteSpace=wrap;html=1;fillColor=#dae8fc;strokeColor=#6c8ebf;" vertex="1" parent="1">
          <mxGeometry x="150" y="320" width="370" height="150" as="geometry" />
        </mxCell>
        <mxCell id="E39O6uzAxmvISPyey-Xv-10" style="edgeStyle=orthogonalEdgeStyle;rounded=1;orthogonalLoop=1;jettySize=auto;html=1;exitX=1;exitY=0.5;exitDx=0;exitDy=0;entryX=0;entryY=0.5;entryDx=0;entryDy=0;strokeWidth=2;fillColor=#ffe6cc;strokeColor=#d79b00;startArrow=classic;startFill=1;" edge="1" parent="1" source="E39O6uzAxmvISPyey-Xv-2" target="E39O6uzAxmvISPyey-Xv-4">
          <mxGeometry relative="1" as="geometry" />
        </mxCell>
        <mxCell id="E39O6uzAxmvISPyey-Xv-2" value="&lt;font style=&quot;font-size: 15px&quot;&gt;&lt;b&gt;资料管理模块&lt;/b&gt;&lt;/font&gt;" style="rounded=1;whiteSpace=wrap;html=1;fillColor=#ffe6cc;strokeColor=#d79b00;" vertex="1" parent="1">
          <mxGeometry x="150" y="480" width="370" height="150" as="geometry" />
        </mxCell>
        <mxCell id="E39O6uzAxmvISPyey-Xv-4" value="&lt;b&gt;&lt;font style=&quot;font-size: 15px&quot;&gt;持久层&lt;/font&gt;&lt;/b&gt;" style="rounded=1;whiteSpace=wrap;html=1;fillColor=#d5e8d4;strokeColor=#82b366;" vertex="1" parent="1">
          <mxGeometry x="600" y="320" width="120" height="470" as="geometry" />
        </mxCell>
        <mxCell id="E39O6uzAxmvISPyey-Xv-11" style="edgeStyle=orthogonalEdgeStyle;rounded=1;orthogonalLoop=1;jettySize=auto;html=1;exitX=1;exitY=0.5;exitDx=0;exitDy=0;entryX=0;entryY=0.5;entryDx=0;entryDy=0;strokeWidth=2;fillColor=#f8cecc;strokeColor=#b85450;startArrow=classic;startFill=1;" edge="1" parent="1" source="E39O6uzAxmvISPyey-Xv-5" target="E39O6uzAxmvISPyey-Xv-4">
          <mxGeometry relative="1" as="geometry" />
        </mxCell>
        <mxCell id="E39O6uzAxmvISPyey-Xv-5" value="&lt;font style=&quot;font-size: 15px&quot;&gt;&lt;b&gt;用户管理模块&lt;/b&gt;&lt;/font&gt;" style="rounded=1;whiteSpace=wrap;html=1;fillColor=#f8cecc;strokeColor=#b85450;" vertex="1" parent="1">
          <mxGeometry x="150" y="640" width="370" height="150" as="geometry" />
        </mxCell>
        <mxCell id="E39O6uzAxmvISPyey-Xv-6" value="&lt;b&gt;普通用户&lt;/b&gt;" style="shape=umlActor;verticalLabelPosition=bottom;verticalAlign=top;html=1;outlineConnect=0;" vertex="1" parent="1">
          <mxGeometry x="-30" y="365" width="30" height="60" as="geometry" />
        </mxCell>
        <mxCell id="E39O6uzAxmvISPyey-Xv-7" value="&lt;b&gt;管理员用户&lt;/b&gt;" style="shape=umlActor;verticalLabelPosition=bottom;verticalAlign=top;html=1;outlineConnect=0;" vertex="1" parent="1">
          <mxGeometry x="-190" y="520" width="30" height="60" as="geometry" />
        </mxCell>
      </root>
    </mxGraphModel>
  </diagram>
</mxfile>
